<?xml version="1.0" encoding="iso-8859-1"?>
<!-- Generator: Adobe Illustrator 19.0.0, SVG Export Plug-In . SVG Version: 6.00 Build 0)  -->
<svg version="1.1" id="Capa_1" xmlns="http://www.w3.org/2000/svg" xmlns:xlink="http://www.w3.org/1999/xlink" x="0px" y="0px"
	 viewBox="0 0 448 448" style="enable-background:new 0 0 448 448;" xml:space="preserve">
<g>
	<g>
		<path d="M96,337.509c-13.809,13.808-32,26.832-32,45.248c0,21.15,16.008,31.734,32.012,31.734
			c15.996,0,31.988-10.571,31.988-31.734C128,364.341,109.809,351.317,96,337.509z M96.012,398.491
			c-2.672,0-16.012-0.758-16.012-15.734c0-7.284,7.398-15.016,16-23.159c8.602,8.143,16,15.875,16,23.159
			C112,397.733,98.683,398.491,96.012,398.491z"/>
	</g>
</g>
<g>
	<g>
		<path d="M384,337.509c-13.809,13.808-32,26.832-32,45.248c0,21.15,16.008,31.734,32.012,31.734
			c15.996,0,31.988-10.571,31.988-31.734C416,364.341,397.809,351.317,384,337.509z M384.012,398.491
			c-2.672,0-16.012-0.758-16.012-15.734c0-7.284,7.398-15.016,16-23.159c8.602,8.143,16,15.875,16,23.159
			C400,397.733,386.683,398.491,384.012,398.491z"/>
	</g>
</g>
<g>
	<g>
		<path d="M304,225.509h-80V114.181L112,289.509h80v112L304,225.509z M141.207,273.509L208,168.948c0,18.661,0,31.35,0,72.561
			c24.93,0,27.718,0,66.851,0L208,346.563c0-92.374,0-33.318,0-73.054C168.547,273.509,165.942,273.509,141.207,273.509z"/>
	</g>
</g>
<g>
	<g>
		<path d="M352,97.509c-6.282,0-11.25,0.649-16.469,1.508C309.906,56.72,270.5,33.509,224,33.509
			c-46.61,0-86.031,23.211-111.547,65.508c-5.203-0.859-10.171-1.508-16.453-1.508c-52.938,0-96,43.062-96,96
			c0,49.75,37.328,90.836,86.813,95.562c4.266,0.516,8.297-2.789,8.734-7.203c0.422-4.398-2.813-8.305-7.203-8.718
			C47.094,269.204,16,234.97,16,193.509c0-44.11,35.89-80,80-80c8.012,0,16.383,1.729,24.797,3.164
			C143.973,75.362,176.226,49.509,224,49.509c46.867,0,79.726,25.215,103.203,67.164c8.414-1.435,16.785-3.164,24.797-3.164
			c44.11,0,80,35.89,80,80s-35.89,80-80,80h-56.141c-4.422,0-8,3.578-8,8c0,4.422,3.578,8,8,8H352c52.938,0,96-43.062,96-96
			C448,140.571,404.938,97.509,352,97.509z"/>
	</g>
</g>
<g>
</g>
<g>
</g>
<g>
</g>
<g>
</g>
<g>
</g>
<g>
</g>
<g>
</g>
<g>
</g>
<g>
</g>
<g>
</g>
<g>
</g>
<g>
</g>
<g>
</g>
<g>
</g>
<g>
</g>
</svg>
