<?xml version="1.0" encoding="iso-8859-1"?>
<!-- Generator: Adobe Illustrator 19.0.0, SVG Export Plug-In . SVG Version: 6.00 Build 0)  -->
<svg version="1.1" id="Capa_1" xmlns="http://www.w3.org/2000/svg" xmlns:xlink="http://www.w3.org/1999/xlink" x="0px" y="0px"
	 viewBox="0 0 448 448" style="enable-background:new 0 0 448 448;" xml:space="preserve">
<g>
	<g>
		<path d="M352,64c-5.586,0-11.031,0.578-16.355,1.494C313.726,26.434,271.977,0,224,0s-89.726,26.434-111.645,65.494
			C107.031,64.578,101.586,64,96,64c-53.019,0-96,42.981-96,96c0,45.73,32.149,83.527,74.965,93.172
			C67.606,263.794,64,274.09,64,288.266c0,35.345,28.656,64,64,64s64-28.655,64-64c0-12.93-2.883-22.605-8.957-32.266H352
			c53.019,0,96-42.981,96-96C448,106.981,405.019,64,352,64z M128,336.266c-26.469,0-48-21.532-48-48
			c0-22.668,9.535-30.322,48-68.007c38.375,37.636,48,45.296,48,68.007C176,314.734,154.469,336.266,128,336.266z M352,240H170.359
			c-10.133-11.013-23.926-23.811-42.359-42.246c-17.875,17.876-31.453,30.477-41.512,41.284C46.898,234.27,16,200.855,16,160
			c0-44.112,35.886-80,80-80c8.187,0,16.289,1.717,24.778,3.178C147.086,36.311,181.742,16,224,16
			c42.25,0,76.914,20.306,103.222,67.178C335.711,81.717,343.813,80,352,80c44.114,0,80,35.888,80,80S396.114,240,352,240z"/>
	</g>
</g>
<g>
	<g>
		<circle cx="376" cy="344" r="8"/>
	</g>
</g>
<g>
	<g>
		<path d="M376,288c-4.418,0-8,3.581-8,8v16c0,4.418,3.582,8,8,8s8-3.582,8-8v-16C384,291.581,380.418,288,376,288z"/>
	</g>
</g>
<g>
	<g>
		<path d="M376,368c-4.418,0-8,3.581-8,7.999V392c0,4.418,3.582,8,8,8s8-3.582,8-8v-16.001C384,371.581,380.418,368,376,368z"/>
	</g>
</g>
<g>
	<g>
		<path d="M352.301,321.08l-13.855-8c-3.828-2.209-8.718-0.898-10.93,2.928s-0.898,8.718,2.93,10.928l13.855,8
			c3.824,2.209,8.718,0.898,10.926-2.928C357.438,328.182,356.125,323.289,352.301,321.08z"/>
	</g>
</g>
<g>
	<g>
		<path d="M421.582,361.081l-13.855-8c-3.828-2.209-8.718-0.898-10.93,2.928c-2.207,3.827-0.898,8.72,2.93,10.929l13.855,8
			c3.828,2.209,8.718,0.898,10.93-2.929C426.718,368.182,425.41,363.29,421.582,361.081z"/>
	</g>
</g>
<g>
	<g>
		<path d="M355.203,356.01c-2.211-3.827-7.102-5.138-10.93-2.929l-13.851,8c-3.828,2.209-5.141,7.102-2.93,10.928
			c2.211,3.827,7.102,5.138,10.93,2.929l13.851-8C356.102,364.729,357.414,359.836,355.203,356.01z"/>
	</g>
</g>
<g>
	<g>
		<path d="M424.488,316.013c-2.211-3.826-7.106-5.137-10.93-2.928l-13.855,8c-3.828,2.209-5.137,7.102-2.93,10.928
			c2.21,3.826,7.102,5.138,10.93,2.928l13.855-8C425.382,324.732,426.695,319.839,424.488,316.013z"/>
	</g>
</g>
<g>
	<g>
		<circle cx="248" cy="392" r="8"/>
	</g>
</g>
<g>
	<g>
		<path d="M248,336c-4.418,0-8,3.581-8,8v16c0,4.418,3.582,8,8,8s8-3.582,8-8v-16C256,339.581,252.418,336,248,336z"/>
	</g>
</g>
<g>
	<g>
		<path d="M248,416c-4.418,0-8,3.581-8,7.999V440c0,4.418,3.582,8,8,8s8-3.582,8-8v-16.001C256,419.581,252.418,416,248,416z"/>
	</g>
</g>
<g>
	<g>
		<path d="M224.301,369.08l-13.855-8c-3.828-2.209-8.718-0.898-10.93,2.928c-2.211,3.826-0.898,8.718,2.93,10.928l13.855,8
			c3.824,2.209,8.718,0.898,10.926-2.928C229.438,376.182,228.125,371.289,224.301,369.08z"/>
	</g>
</g>
<g>
	<g>
		<path d="M293.582,409.081l-13.855-8c-3.828-2.209-8.718-0.898-10.93,2.928c-2.207,3.827-0.898,8.72,2.93,10.929l13.855,8
			c3.828,2.209,8.718,0.898,10.93-2.929C298.718,416.182,297.41,411.29,293.582,409.081z"/>
	</g>
</g>
<g>
	<g>
		<path d="M227.203,404.01c-2.211-3.827-7.102-5.138-10.93-2.929l-13.851,8c-3.828,2.209-5.141,7.102-2.93,10.928
			c2.211,3.827,7.102,5.138,10.93,2.929l13.851-8C228.102,412.729,229.414,407.836,227.203,404.01z"/>
	</g>
</g>
<g>
	<g>
		<path d="M296.488,364.013c-2.211-3.826-7.106-5.137-10.93-2.928l-13.855,8c-3.828,2.209-5.137,7.102-2.93,10.928
			c2.21,3.826,7.102,5.138,10.93,2.928l13.855-8C297.382,372.732,298.695,367.839,296.488,364.013z"/>
	</g>
</g>
<g>
</g>
<g>
</g>
<g>
</g>
<g>
</g>
<g>
</g>
<g>
</g>
<g>
</g>
<g>
</g>
<g>
</g>
<g>
</g>
<g>
</g>
<g>
</g>
<g>
</g>
<g>
</g>
<g>
</g>
</svg>
